<?xml version="1.0" encoding="utf-8"?>
<!-- Generator: Adobe Illustrator 20.1.0, SVG Export Plug-In . SVG Version: 6.00 Build 0)  -->
<svg version="1.1" id="Layer_1" xmlns="http://www.w3.org/2000/svg" xmlns:xlink="http://www.w3.org/1999/xlink" x="0px" y="0px"
	 viewBox="0 0 256 256" style="enable-background:new 0 0 256 256;" xml:space="preserve">
<g>
	<path style="fill:#4A1700;" d="M107.188,33.059c-2.797,2.178-26.811,20.882-29.689,23.124C66.69,64.604,27.807,94.908,17,103.333
		v133.333l121.333-18.5c7.234,4.538,13.476,8.339,18.391,11.291c6.088,3.657,10.697,6.244,19.913,11.418
		c1.831,1.028,4.564,2.554,8.353,4.247c1.28,0.572,4.744,2.085,9.418,3.622c2.719,0.894,5.969,1.835,9.685,2.662
		c1.18,0.239,2.842,0.558,4.846,0.884c2.757,0.448,4.135,0.671,5.684,0.738c1.387,0.06,3.739,0.145,6.68-0.525
		c1.485-0.339,3.629-0.847,6.018-2.343c2.136-1.337,3.553-2.892,4.397-3.972c0.597-0.767,1.283-1.79,1.882-3.076
		c0.499-1.07,0.817-2.061,1.024-2.893c0.369-1.379,0.713-3.172,0.781-5.281c0.083-2.553-0.242-4.495-0.509-5.898
		c-0.289-1.518-0.662-2.689-0.796-3.089c-0.059-0.175-0.461-1.368-0.577-1.673c-0.022-0.058-0.43-1.018-0.473-1.109
		c-0.165-0.352-0.444-0.967-0.875-1.925c-0.242-0.496-4.539-9.177-7.177-14.744c-0.319-0.673,0.245-33.754,0.25-34.5
		c0.005-0.706,0.237-32.87,0.242-33.576c0.059-0.212,0.164-0.518,0.352-0.855c0.304-0.543,0.656-0.847,0.916-1.115
		c0,0,0.223-0.222,1.303-1.662c0.914-1.22,1.992-3.731,2.438-6.792c0.131-0.9,0.149-2.091,0.179-4.437
		c0.022-1.662,0.036-2.788,0.028-4.021c-0.007-1.105-0.029-1.911-0.036-2.23c-0.035-1.523-0.064-3.947-0.031-7.859
		c0.037-4.425-0.042-3.708-0.031-9.156c0.006-2.79,0.025-5.029,0.038-6.437c0.029-3.3,0.044-4.95,0.07-5.672
		c0.023-0.645,0.072-1.853,0.072-3.515c0-1.171,0-1.757-0.048-2.443c-0.064-0.923-0.221-2.192-0.63-3.709
		c-0.218-0.598-0.433-1.189-0.65-1.788c-0.229-0.517-0.663-1.448-1.355-2.553c-0.685-1.094-1.308-1.858-2.398-3.184
		c-0.904-1.1-1.631-1.919-1.909-2.229c-0.57-0.638-1.768-1.957-3.459-3.623c-2.671-2.631-5.073-4.651-6.627-5.902
		c-0.678-0.546-2.591-2.07-5.21-3.893c-0.762-0.531-3.04-2.1-6.189-3.97c-2.701-1.604-4.797-2.689-6.227-3.426
		c-1.888-0.973-4.921-2.529-8.952-4.209c-3.112-1.297-6.144-2.404-9.147-3.495c-0.01-0.004-0.066-0.024-0.076-0.028
		c-1.417-0.517-3.295-1.175-5.524-1.88c0,0-4.536-1.436-8.817-2.469c-5.704-1.376-10.537-1.801-20.196-2.684
		c-2.606-0.238-7.565-0.575-8.688-0.625c-3.834-0.171-5.751-0.256-7.532-0.295c-1.952-0.042-6.489-0.154-6.785-0.164
		c-1.931-0.067-4.975-0.083-4.975-0.083c-5.574-0.022-6.053,0.025-6.894,0.356C107.529,32.758,107.448,32.879,107.188,33.059z"/>
	<path style="fill:#995700;" d="M22.013,141.749l107.862-14.67V214L22.013,230.124 M218.917,195.25v-84l-40.667,5.917"/>
	<path style="fill:#FFFFFF;" d="M76.5,63.542L129.875,92L22.013,106.222L76.5,63.542z M222.595,78.096
		c-0.358-0.68-1.031-1.871-2.424-3.676c-0.678-0.879-1.536-1.915-2.949-3.413c-0.901-0.955-2.546-2.647-4.847-4.694
		c-3.073-2.732-5.648-4.613-7.176-5.723c-0.419-0.304-1.553-1.123-3.058-2.142c-1.834-1.242-3.254-2.128-3.61-2.35
		c-3.316-2.063-5.979-3.451-6.79-3.869c-1.07-0.552-2.527-1.299-4.525-2.175c-0.406-0.178-4.461-1.996-5.881-2.565
		c-1.246-0.499-2.216-0.89-4.237-1.482c-1.168-0.342-2.028-0.46-2.028-0.46l-3.339,30.121l-9.453,9.715l15.953-0.653l22.875-2.875
		l10.653,0.025l-0.046-0.422l11.635-1.788C223.175,79.271,222.927,78.726,222.595,78.096z M108.176,38.341
		c-0.79,0.474-1.945,1.419-1.945,1.419l2.24,4.445l6.83-1.057l6.715-1.039l-2.081-5.202l-1.907,0.011c0,0-4.023,0.012-5.816,0.176
		C110.224,37.277,109.131,37.768,108.176,38.341z"/>
	<path style="fill:#FFE05C;" d="M22.013,106.222L129.875,92v35.079l-107.862,14.67V106.222z M171.729,75.667L162,84.833
		l16.25,32.333l40.667-5.917v22.313c0.413,0.058,1.672,0.179,2.958-0.563c1.716-0.989,2.141-2.742,2.208-3.042
		c0-16.042,0-32.083,0-48.125l-22.979,0.021l-22.875,2.875c-0.774-0.141-2.31-1.184-4.375-3.625
		C172.097,79.026,171.81,76.511,171.729,75.667z"/>
	<path style="fill:#995700;" d="M79.188,99.813c-11.908,2.245-21.259,3.117-28.301,3.756c-4.542,0.412-10.588,0.876-17.762,1.182
		c13.373-1.818,46.003-6.004,59.376-7.822C89.317,97.709,84.74,98.766,79.188,99.813z M201.104,81.854
		c3.943,0,19.036-0.021,22.979-0.021c0,0,0.058-0.175-0.248-1.059c-0.145-0.419-0.322-0.821-0.489-1.105L201.104,81.854z"/>
	<path style="fill:#4A1700;" d="M80,49.083h-5l0,11.849c0,0.542,0.078,1.084,0.258,1.595c1.421,4.03,3.876,7.289,8.312,11.078
		c1.519,1.298,3.029,2.327,4.43,3.145c2.215,1.533,4.797,3.14,7.75,4.688c2.978,1.561,5.794,2.776,8.333,3.729L116,88.833
		l13.781,3.073l0.019,32.176l63.316,124.227c1.563,0.556,3.234,1.098,5.008,1.607c1.83,0.525,3.585,0.962,5.251,1.327
		c1.797,0.396,3.715,0.762,5.744,1.076c2.134,0.329,4.168,0.566,6.086,0.732c1.412,0.103,3.331,0.098,5.543-0.342
		c2.462-0.49,4.4-1.343,5.725-2.053c1.068-0.585,2.501-1.52,3.924-2.965c1.312-1.332,2.183-2.66,2.746-3.679
		c0.462-0.892,0.949-1.996,1.348-3.299c0.46-1.5,0.68-2.855,0.783-3.96c0.126-1.315,0.178-2.882,0.04-4.638
		c-0.065-0.825-0.264-2.852-0.994-5.424c-0.744-2.619-1.657-4.497-2.009-5.19c-3.625-7.146-3.729-7.438-7.313-15
		c-3.38-7.134-12.086-22.638-23.542-44.833l-39.183-76.285l17.319-18.117c0.366-0.383,0.566-0.897,0.554-1.427l-0.221-9.89
		c-0.007-0.295-0.079-0.585-0.211-0.85l-4.383-8.765l-3.639-7.277c-0.128-0.257-0.31-0.483-0.534-0.663l-19.827-15.977
		l-15.75-12.833l-6-4.333L112.75,6.417l0.5,14.083l8.657,21.704L108.4,44.3L91.5,10.667l-13.928,2.375L78,33.583L80,49.083z"/>
	<path style="fill:#736357;" d="M88.608,51.009l16.496-2.426L89.375,14.682l-8.403,1.541L88.608,51.009z M105.104,49.193
		l28.388-4.162l-16.482-34.467l11.427-1.313l7.875,6.281l11.5,9.344l19.342,15.587c0.337,0.272,0.612,0.614,0.804,1.002
		l7.674,15.454c0.345,0.774,0.165,1.68-0.449,2.264L154.5,78.833L197.578,163c11.456,22.195,19.557,37.616,22.938,44.75
		c0.284,0.599,1.651,3.697,3.705,7.8c0.946,1.889,1.906,3.444,3.337,6.388c0.493,1.015,1.31,2.66,2.083,4.906
		c0.783,2.275,0.887,3.294,0.922,3.781c0.154,2.175-0.361,3.732-0.5,4.125c-0.304,0.857-0.664,1.462-0.875,1.813
		c-0.246,0.409-0.622,1.025-1.263,1.689c-0.43,0.445-0.781,0.707-1.408,1.17c-1.069,0.789-1.952,1.312-2.219,1.469
		c-0.27,0.158-2.28,1.327-4.139,1.883c-0.189,0.057-1.219,0.367-2.47,0.539c-4.062,0.557-7.796-0.55-10.813-1.5
		c-1.542-0.486-3.963-1.267-6.771-3.042c-0.533-0.337-1.34-0.849-2.211-1.531c-0.848-0.664-1.572-1.473-2.158-2.376
		c-0.072-0.111-0.15-0.232-0.236-0.364c-2.577-3.99-62.688-126.813-62.688-126.813l-0.192-18.779
		c-1.413-0.075-2.988-0.167-4.703-0.284c-3.298-0.223-3.96-0.319-4.729-0.813c-1.318-0.845-1.233-1.754-2.563-3.229
		c-1.482-1.644-3.168-2.27-4.438-2.792c-1.668-0.684-5.494-2.689-13.172-6.64c-2.375-1.222-1.14-0.671-6.529-3.578
		c0,0-8.668-4.676-12.611-8.49c-0.748-0.724-1.279-1.536-1.279-1.536c-0.307-0.471-0.485-0.843-0.721-1.339
		c-0.433-0.908-0.885-1.807-1.304-2.722c-0.357-0.778-0.874-1.889-1.529-3.236c0-0.458,0-0.917,0-1.375L105.104,49.193z
		 M138.188,54.438l-27.875,4l5.125,12.125l28.688-4.313L138.188,54.438z M118.563,60.313c2.771,1.367,3.972,5.652,2.593,7.338
		c-0.469,0.573-1.365,1.005-1.905,0.724c-0.933-0.485,0.199-2.586-0.813-4.625c-1.185-2.388-4.215-2.617-4.063-3.313
		C114.5,59.867,116.761,59.424,118.563,60.313z M122.021,59.396c-0.178,0.658,2.863,1.05,4.042,3.542
		c0.885,1.871,0.073,3.555,1.125,4.188c0.587,0.353,1.533,0.244,2-0.25c1.254-1.328-0.276-6.205-3.5-7.563
		C124.07,58.632,122.157,58.892,122.021,59.396z M129.708,58.375c-0.163,0.631,2.706,0.965,3.792,3.25
		c0.975,2.051-0.251,4.057,0.75,4.688c0.55,0.346,1.503,0.093,2-0.438c1.393-1.489,0.081-6.2-2.875-7.563
		C131.782,57.578,129.838,57.873,129.708,58.375z"/>
	<path style="fill:#534741;" d="M176.167,58.594v6.219L157.24,83.536l-2.418-4.755L176.167,58.594z M116.846,10.686l0.335,7.286
		l11.427,27.517l4.6-0.665L116.846,10.686z M85.459,51.483l2.916-0.424l-7.302-33.496l0.18,12.518L85.459,51.483z M79.042,54.833
		v4.083c0.644,1.629,1.283,2.974,1.802,3.99c0.671,1.312,1.323,2.576,2.406,4.094c0.822,1.152,1.604,2.046,2.188,2.667
		c1.244,1.069,2.627,2.171,4.156,3.271c2.02,1.453,3.969,2.669,5.781,3.688c1.797,1.083,3.735,2.176,5.813,3.25
		c1.784,0.923,3.518,1.753,5.188,2.5c1.407,0.65,2.855,1.297,4.344,1.938c1.321,0.568,2.624,1.109,3.906,1.625
		c0.792,0.257,1.583,0.514,2.375,0.771c0.91,0.21,1.847,0.412,2.813,0.604c0.959,0.191,1.897,0.362,2.813,0.516
		c-0.205-0.241-0.511-0.619-0.844-1.109c-0.432-0.637-0.574-0.968-0.828-1.359c-0.508-0.781-1.094-1.23-1.672-1.672
		c-1.202-0.92-2.296-1.31-3.24-1.688c-1.718-0.688-3.321-1.634-4.987-2.442c-1.001-0.486-2.889-1.401-4.972-2.475
		c-1.759-0.907-1.566-0.848-6.664-3.609c-2.791-1.512-3.602-1.937-5.169-2.85c-0.969-0.564-2.172-1.283-3.563-2.167
		c-1.618-1.028-2.658-1.752-3.042-2.021c-0.661-0.463-1.319-0.941-2.042-1.5c-1.416-1.095-1.93-1.611-2.313-2.042
		c-0.479-0.539-0.786-0.984-0.896-1.146c-0.357-0.528-0.568-0.942-0.917-1.646c-0.572-1.154-0.858-1.731-1.146-2.354
		C79.984,56.994,79.539,56.008,79.042,54.833z M132.75,108.156v10.26l59,119.833c1.716,1.988,4.812,5.061,9.542,7.417
		c5.467,2.723,10.467,3.165,13.208,3.208c1.571,0.103,6.022,0.185,10.458-2.667c2.384-1.533,3.95-3.39,4.925-4.838
		c0.562-0.835,0.867-1.811,0.867-2.818l0-5.522c-0.202,1.081-0.697,2.895-2.063,4.641c-0.966,1.236-1.926,1.872-3.297,2.781
		c-1.296,0.86-3.88,2.536-7.406,3.078c-1.441,0.221-2.666,0.196-2.969,0.188c-1.178-0.033-2.085-0.186-2.919-0.331
		c-0.928-0.161-1.59-0.326-2.419-0.535c-1.115-0.281-2.45-0.625-4.157-1.236c-1.791-0.641-2.891-1.184-3.15-1.313
		c-1.155-0.576-2.004-1.109-2.559-1.46c-1.007-0.637-1.518-0.961-2.188-1.531c-0.528-0.45-1.315-1.13-2.047-2.203
		c-0.229-0.336-0.418-0.662-0.797-1.313c-0.377-0.648-0.673-1.195-0.875-1.578C173.521,190.865,153.135,149.51,132.75,108.156z"/>
</g>
</svg>
